HIERARCHY
ROOT Hips
{
	OFFSET -14.64140 90.27770 -84.91600
	CHANNELS 6 Xposition Yposition Zposition Zrotation Xrotation Yrotation
	JOINT Spine
	{
		OFFSET 0.00000 13.20850 -1.60436
		CHANNELS 3 Zrotation Xrotation Yrotation
		JOINT Spine1
		{
			OFFSET 0.00000 8.61716 0.00000
			CHANNELS 3 Zrotation Xrotation Yrotation
			JOINT Spine2
			{
				OFFSET 0.00000 8.61717 0.00000
				CHANNELS 3 Zrotation Xrotation Yrotation
				JOINT Spine3
				{
					OFFSET 0.00000 8.61717 0.00000
					CHANNELS 3 Zrotation Xrotation Yrotation
					JOINT Neck
					{
						OFFSET 0.00000 11.07920 1.10792
						CHANNELS 3 Zrotation Xrotation Yrotation
						JOINT Neck1
						{
							OFFSET 0.00000 7.08032 0.00000
							CHANNELS 3 Zrotation Xrotation Yrotation
							JOINT Head
							{
								OFFSET 0.00000 7.08031 0.00000
								CHANNELS 3 Zrotation Xrotation Yrotation
								End site
								{
									OFFSET 0.00000 0.00000 0.00000
								}
							}
						}
					}
					JOINT RightShoulder
					{
						OFFSET -0.01000 7.91373 5.19711
						CHANNELS 3 Zrotation Xrotation Yrotation
						JOINT RightArm
						{
							OFFSET -18.41580 0.00000 0.00000
							CHANNELS 3 Zrotation Xrotation Yrotation
							JOINT RightForeArm
							{
								OFFSET -29.11090 0.00000 0.00000
								CHANNELS 3 Zrotation Xrotation Yrotation
								JOINT RightHand
								{
									OFFSET -24.65040 0.00000 0.00000
									CHANNELS 3 Zrotation Xrotation Yrotation
									JOINT RightHandThumb1
									{
										OFFSET -5.35114 -0.85590 3.97906
										CHANNELS 3 Zrotation Xrotation Yrotation
										JOINT RightHandThumb2
										{
											OFFSET -4.52789 0.00000 0.00000
											CHANNELS 3 Zrotation Xrotation Yrotation
											JOINT RightHandThumb3
											{
												OFFSET -2.46976 0.00000 0.00000
												CHANNELS 3 Zrotation Xrotation Yrotation
												End site
												{
													OFFSET 0.00000 0.00000 0.00000
												}
											}
										}
									}
									JOINT RightHandIndex1
									{
										OFFSET -14.26970 0.00000 2.88139
										CHANNELS 3 Zrotation Xrotation Yrotation
										JOINT RightHandIndex2
										{
											OFFSET -5.48836 0.00000 0.00000
											CHANNELS 3 Zrotation Xrotation Yrotation
											JOINT RightHandIndex3
											{
												OFFSET -3.01859 0.00000 0.00000
												CHANNELS 3 Zrotation Xrotation Yrotation
												End site
												{
													OFFSET 0.00000 0.00000 0.00000
												}
											}
										}
									}
									JOINT RightHandMiddle1
									{
										OFFSET -14.26970 0.00000 -0.09147
										CHANNELS 3 Zrotation Xrotation Yrotation
										JOINT RightHandMiddle2
										{
											OFFSET -6.17441 0.00000 0.00000
											CHANNELS 3 Zrotation Xrotation Yrotation
											JOINT RightHandMiddle3
											{
												OFFSET -3.56743 0.00000 0.00000
												CHANNELS 3 Zrotation Xrotation Yrotation
												End site
												{
													OFFSET 0.00000 0.00000 0.00000
												}
											}
										}
									}
									JOINT RightHandRing1
									{
										OFFSET -12.69180 0.00000 -3.06433
										CHANNELS 3 Zrotation Xrotation Yrotation
										JOINT RightHandRing2
										{
											OFFSET -5.62556 0.00000 0.00000
											CHANNELS 3 Zrotation Xrotation Yrotation
											JOINT RightHandRing3
											{
												OFFSET -3.56744 0.00000 0.00000
												CHANNELS 3 Zrotation Xrotation Yrotation
												End site
												{
													OFFSET 0.00000 0.00000 0.00000
												}
											}
										}
									}
									JOINT RightHandPinky1
									{
										OFFSET -11.11390 0.00000 -6.03719
										CHANNELS 3 Zrotation Xrotation Yrotation
										JOINT RightHandPinky2
										{
											OFFSET -4.52789 0.00000 0.00000
											CHANNELS 3 Zrotation Xrotation Yrotation
											JOINT RightHandPinky3
											{
												OFFSET -2.46976 0.00000 0.00000
												CHANNELS 3 Zrotation Xrotation Yrotation
												End site
												{
													OFFSET 0.00000 0.00000 0.00000
												}
											}
										}
									}
								}
							}
						}
					}
					JOINT LeftShoulder
					{
						OFFSET 0.01000 7.91373 5.19711
						CHANNELS 3 Zrotation Xrotation Yrotation
						JOINT LeftArm
						{
							OFFSET 18.41580 0.00000 0.00000
							CHANNELS 3 Zrotation Xrotation Yrotation
							JOINT LeftForeArm
							{
								OFFSET 29.11090 0.00000 0.00000
								CHANNELS 3 Zrotation Xrotation Yrotation
								JOINT LeftHand
								{
									OFFSET 24.65040 0.00000 0.00000
									CHANNELS 3 Zrotation Xrotation Yrotation
									JOINT LeftHandThumb1
									{
										OFFSET 5.35114 -0.85590 3.97906
										CHANNELS 3 Zrotation Xrotation Yrotation
										JOINT LeftHandThumb2
										{
											OFFSET 4.52789 0.00000 0.00000
											CHANNELS 3 Zrotation Xrotation Yrotation
											JOINT LeftHandThumb3
											{
												OFFSET 2.46977 0.00000 0.00000
												CHANNELS 3 Zrotation Xrotation Yrotation
												End site
												{
													OFFSET 0.00000 0.00000 0.00000
												}
											}
										}
									}
									JOINT LeftHandIndex1
									{
										OFFSET 14.26970 0.00000 2.88139
										CHANNELS 3 Zrotation Xrotation Yrotation
										JOINT LeftHandIndex2
										{
											OFFSET 5.48836 0.00000 0.00000
											CHANNELS 3 Zrotation Xrotation Yrotation
											JOINT LeftHandIndex3
											{
												OFFSET 3.01859 0.00000 0.00000
												CHANNELS 3 Zrotation Xrotation Yrotation
												End site
												{
													OFFSET 0.00000 0.00000 0.00000
												}
											}
										}
									}
									JOINT LeftHandMiddle1
									{
										OFFSET 14.26970 0.00000 -0.09147
										CHANNELS 3 Zrotation Xrotation Yrotation
										JOINT LeftHandMiddle2
										{
											OFFSET 6.17440 0.00000 0.00000
											CHANNELS 3 Zrotation Xrotation Yrotation
											JOINT LeftHandMiddle3
											{
												OFFSET 3.56744 0.00000 0.00000
												CHANNELS 3 Zrotation Xrotation Yrotation
												End site
												{
													OFFSET 0.00000 0.00000 0.00000
												}
											}
										}
									}
									JOINT LeftHandRing1
									{
										OFFSET 12.69180 0.00000 -3.06433
										CHANNELS 3 Zrotation Xrotation Yrotation
										JOINT LeftHandRing2
										{
											OFFSET 5.62556 0.00000 0.00000
											CHANNELS 3 Zrotation Xrotation Yrotation
											JOINT LeftHandRing3
											{
												OFFSET 3.56744 0.00000 0.00000
												CHANNELS 3 Zrotation Xrotation Yrotation
												End site
												{
													OFFSET 0.00000 0.00000 0.00000
												}
											}
										}
									}
									JOINT LeftHandPinky1
									{
										OFFSET 11.11390 0.00000 -6.03719
										CHANNELS 3 Zrotation Xrotation Yrotation
										JOINT LeftHandPinky2
										{
											OFFSET 4.52789 0.00000 0.00000
											CHANNELS 3 Zrotation Xrotation Yrotation
											JOINT LeftHandPinky3
											{
												OFFSET 2.46976 0.00000 0.00000
												CHANNELS 3 Zrotation Xrotation Yrotation
												End site
												{
													OFFSET 0.00000 0.00000 0.00000
												}
											}
										}
									}
								}
							}
						}
					}
					JOINT pCube4
					{
						OFFSET 0.00000 10.91090 1.10792
						CHANNELS 3 Zrotation Xrotation Yrotation
						End site
						{
							OFFSET 0.00000 0.00000 0.00000
						}
					}
				}
			}
		}
	}
	JOINT RightUpLeg
	{
		OFFSET -9.98441 0.00000 0.00000
		CHANNELS 3 Zrotation Xrotation Yrotation
		JOINT RightLeg
		{
			OFFSET 0.00000 -42.11790 0.00000
			CHANNELS 3 Zrotation Xrotation Yrotation
			JOINT RightFoot
			{
				OFFSET 0.00000 -45.00020 -0.00001
				CHANNELS 3 Zrotation Xrotation Yrotation
				JOINT RightForeFoot
				{
					OFFSET 0.00000 -3.74820 0.00000
					CHANNELS 3 Zrotation Xrotation Yrotation
					JOINT RightToeBase
					{
						OFFSET 0.00000 0.06325 14.43120
						CHANNELS 3 Zrotation Xrotation Yrotation
						End site
						{
							OFFSET 0.00000 0.00000 0.00000
						}
					}
				}
			}
		}
	}
	JOINT LeftUpLeg
	{
		OFFSET 9.98441 0.00000 0.00000
		CHANNELS 3 Zrotation Xrotation Yrotation
		JOINT LeftLeg
		{
			OFFSET 0.00000 -42.11800 0.00000
			CHANNELS 3 Zrotation Xrotation Yrotation
			JOINT LeftFoot
			{
				OFFSET 0.00000 -45.00070 0.00000
				CHANNELS 3 Zrotation Xrotation Yrotation
				JOINT LeftForeFoot
				{
					OFFSET 0.00000 -3.74824 0.00000
					CHANNELS 3 Zrotation Xrotation Yrotation
					JOINT LeftToeBase
					{
						OFFSET 0.00000 0.06325 14.43110
						CHANNELS 3 Zrotation Xrotation Yrotation
						End site
						{
							OFFSET 0.00000 0.00000 0.00000
						}
					}
				}
			}
		}
	}
}
MOTION
Frames: 4
Frame Time: 0.050000
-0.02414246091467129 -0.009318021156957016 0.03216542919760402 -0.036968875591806914 -0.015649565102897046 0.01901633322896803 -3.2924317146368116 0.9820854116482717 -0.8037778473565144 -0.9503329053401793 3.5663853297730013 0.2840003066240613 -1.11533383695427 -1.7889918590785872 -3.5986328814723207 0.4797944504940601 0.5086947149921892 -1.2173324683635725 -0.6981808261957495 11.552852181994487 0.588984353409521 -0.22334891247921346 -1.0377940346781034 1.1874478708685448 -0.36039242072714167 -16.79560573526695 0.14201357281596153 -4.272464730854904 1.5875115277107545 -12.924764797519263 70.86638512707172 20.25414073530794 10.013005327686699 17.052229827390885 3.790546578368469 73.20558446405391 16.218871080549324 -0.32851931299368675 -3.597267866804038 4.495771975003238 -0.10865205431996441 -1.6270723912565692 0.04760091381562796 0.03147204492845103 -56.22969910264767 0.010075796793104946 -0.022238299670003556 -56.20546053660493 -38.77733893661512 0.01152234173618028 0.03826636854456345 -0.022485933834444187 -0.021530093781370333 -0.01400336634719134 -0.037788896501814266 -0.04078416692018947 0.00035819197473251345 -36.74192721821777 0.0024361045801387414 -0.03789733604962166 0.0008324784105033285 -0.031555661708591635 0.04058797091418006 0.036154376154424774 0.0012975282925756723 -0.041421512374115496 -19.719511518084296 -0.03852942333973097 0.025331782452830114 -0.015036357364405369 -0.028491156874038817 -0.015450772541965335 0.0034848338244532775 -0.0360624307166053 -0.004631219686205917 24.041825494963252 0.004441063094799261 -0.02947981421846859 28.856696152266952 0.0012779016860888183 0.006022784435735869 28.88083174103439 0.03904101615378251 0.038859158237677494 8.47383576994708 1.897747218435597 10.034597481455728 -64.09317977090322 21.228941523273633 -29.0060277265457 -44.9269727683749 0.33151358733587394 -74.78503087351491 -11.737300460305091 -4.296704975696705 3.506892101557199 -0.45204990589742483 0.019631472627650623 -8.077628548878524 0.005902106698108694 -0.018500048539608543 44.52387552963493 -0.04695308773633359 0.01826609459070941 44.55673656454651 12.458487488716052 -0.011568115294325342 -0.014346861327859502 -0.0008775284030907883 0.027577772984283246 0.04519776929404359 0.00829694227173035 0.009615702714825756 0.01265075172425211 11.076646354128018 -0.015984980706737425 0.019929320419038787 0.00864589290680268 0.035648596702559925 0.03261810671964884 -0.016137235306744085 0.02217573085879373 -0.0014317790124662468 4.7379497773424255 -0.014096509427567893 -0.02400324493228229 -0.023665737170928285 -0.012149007374375841 -0.022686162559799505 0.04831618125594134 -0.00352669866287295 -0.005965534768547643 -5.599496090300054 0.04874636817113108 -0.02539021081171694 -6.678747433275129 -0.04546418024447801 -0.040600469397566556 -6.736755944588217 -0.03344769384308052 -0.03240626272330665 -0.01847021992709372 0.031012317319640995 -0.009335436930368507 8.083731656226616 3.5317664689380197 -19.24089807143224 -0.012711816764971864 10.364732021696144 0.024175067918096087 -5.661873664772055 -15.639612951286246 3.233557656357007 0.027788785554195866 -0.0447282213899345 0.01992850579607885 -0.008492315650712273 4.667457858991896 0.008599331055082008 12.47286171376235 -8.257886087331846 6.867973145193645 0.043501330818842505 46.336115601766004 -0.046616474836903836 -4.30669540750263 -14.70598541720773 -3.8506315645433964 -0.012438068861170581 0.0018777111859297933 -0.009959017735114666 8.904271037547415e-05 -10.72404079250835 -0.03751104588257953 
0.0011963634398733285 -0.024118675921605597 0.01391896804197198 -0.047286096652186006 -0.00636888610410943 0.017654582822167853 -3.4016626484747494 0.8983080917255383 -0.8035329609667967 -0.9744868606068043 3.514365504228256 0.2857176935981502 -1.1103695631974877 -1.7984270025631877 -3.6213430057420184 0.448360578630856 0.4513322298526119 -1.227613813349534 -0.7279904806852011 11.568181174364883 0.6086509113994546 -0.17173215211255402 -1.0303616777563307 1.278556756814371 -0.351338333694872 -16.731308157733952 0.12456363420299074 -4.124551006371906 1.5467602429029281 -12.847150736558767 71.07427149216626 20.18777174009311 10.310746193109773 19.80041772599403 3.7430720918618268 73.96196401194689 16.243898147595793 -0.3134914909767243 -3.6657060216908826 4.5715337115205665 -0.1379658954702474 -1.6226951627742314 0.0007387706090670285 -0.04127602335044226 -56.27811543514501 0.016931775355522944 0.03984588187937968 -56.187371150465246 -38.791499196849124 0.019454016155927893 0.01296591440394611 -0.017891878917603115 -0.036901505572412674 0.00026060208376275934 -0.024174287060445374 -0.040603205371140906 0.001807484033181492 -36.66904140576825 0.026743295965907212 0.03780350109334792 -0.04001328911903913 0.02637303618257328 0.016436054377876295 0.030935408900048384 -0.010211889638295979 -0.015017285059866091 -19.79039555367308 0.021167773362328907 0.04282914449708753 -0.010593221244464457 -0.014317215550537306 0.04574462544038342 -0.04710486954452396 -0.036285995783793865 -0.03796151190327474 24.08959158077338 -0.04840357441012547 0.0014035357518072651 28.87992695802404 0.012868394757852354 0.0069136350073707616 28.849720227718773 -0.015815421671515287 -0.02580059752963446 8.504926370654728 1.9112595681744842 10.001779104674712 -63.94560286842759 21.103320329250298 -29.502941885185294 -48.6364738039792 1.597329759730826 -76.50734110378637 -12.067131078594146 -4.260725715193767 3.5148271015049133 -0.47188298225648206 0.043569204907847284 -8.112741721402864 -0.03504315131301608 0.001258512614599048 44.58514542483452 -0.02354698921301703 0.00935620501839016 44.52952640262529 12.475108552432799 -0.00955033649857718 -0.003101704312098763 -0.012510747664184379 -0.02367574969239896 0.010806082382321686 -0.0126305816944983 0.018727421545355286 0.003300140850253757 11.09076823548263 -0.009323100303770517 -0.010238151398573194 0.005022104076502732 -0.010523063521141926 0.0015442826454592346 0.016628352987378494 -0.009819579211623752 -0.011841019564497545 4.812498808100617 0.014866198986010524 -0.03935847811003805 0.008923880752802317 -0.03222140476742272 0.016714587146761193 0.010845830079431767 -0.009027857936791115 0.03271138569619035 -5.64272282007046 0.04925400053703812 0.0056914595530284115 -6.721298618045062 0.022004359841688265 0.0007616358260063896 -6.698035942394198 0.02898744044879042 0.04255033920453141 -0.01892471215873403 0.018805143233662752 -0.032979247867521176 8.06409900447605 3.539914674511553 -19.241779033001414 0.019206319432430036 10.352857862505854 0.04216221403953746 -5.624589933291505 -15.630484739813824 3.1553078868688966 -0.04852508965189244 0.03139821548529726 -0.0016807208405848855 -0.03706041968386274 4.6854185018298145 -0.033115963139270586 12.495558681020144 -8.255306227978728 6.864421538901801 -0.00498489511115087 46.35855065098436 0.015051458675958175 -4.357651175292179 -14.732949704849617 -3.8211189819282305 0.02804819677124146 -0.04628430726957404 -0.016022116416763536 0.03032206958422475 -10.735624328615694 -0.01631732842196106 
0.0028503399093985707 0.03013114576510911 -0.01688415486646435 0.047451850373129635 -0.04084276616765264 0.010619411385513595 -3.343150528298888 0.8597517201510535 -0.8150281678509496 -0.9377743889052538 3.5353637472234505 0.33796782154431876 -1.1465747347528725 -1.739857536241474 -3.6365309592640904 0.4502100368220294 0.502439448318441 -1.2009667377862698 -0.6806069728692763 11.469622253990721 0.6785760007114612 -0.14600271121931527 -0.9911254880847798 1.3286502500719608 -0.32525713448594346 -16.720302531864856 0.09592257809445984 -4.13000989900168 1.5268857712394381 -12.9145433301512 71.19555185277702 19.80067006955698 10.453520952395118 20.819779979322995 3.4017674974269743 73.36935619691397 16.42476677748573 -0.30966228481432123 -3.799472789634527 4.504096112065136 -0.13335766583019995 -1.5593805577395945 0.037597831528209884 -0.01716199740402396 -56.192967714237874 0.0056949974986028285 0.019634989673683517 -56.28168030095323 -38.74772434063608 0.027639044559641515 -0.026022521504826635 0.007434059095252873 0.03766244257230192 -0.004457399047947566 -0.03666978439257353 0.024452179986043418 0.026841938010841712 -36.67520824581068 -0.007407914485135058 -0.027145490762582027 -0.0019026598248679163 -0.005804998533601453 0.007751346418339271 -0.0017761344056007936 -0.04743414478421122 -0.03433046069860069 -19.7560661680948 -0.04773564189194548 0.03736323395938178 0.024402147347152344 -0.007052476940242634 0.009828990904060487 -0.018519186207659785 -0.019018146138676976 -0.03353141137215912 24.012660790699552 0.036112162139608356 0.01853737721730054 28.852540148666595 -0.021995768172373052 0.032051232647564744 28.871225745814247 0.046251894213476044 0.014460916472516216 8.525684688250722 1.915519284295832 10.003874108568365 -63.88861145172918 21.081706336809187 -29.431769813684976 -50.88712605870213 1.7421504543117399 -77.5559503314014 -12.316492639117689 -4.551386809285455 3.8073295901055073 -0.4842391587507289 0.06309516793113447 -8.126574510724497 -0.034599515610969564 -0.046299471215356124 44.51891971054914 -0.006267655618332069 -0.027162546791918322 44.54559492895322 12.50686303968503 -0.008918529667820148 0.015609304168969707 -0.02477337610585539 -0.006512966937929022 -0.01316923603044927 0.04817973775618314 -0.039771756940704416 0.01898211869748117 11.112055499607518 -0.012223115830776303 0.0025169316101682168 0.020551521404092457 0.03034394409232327 -0.016400841866203077 -0.024925140136625973 0.021354239994234178 0.000753347499662003 4.820421741015042 -0.028862655476555456 0.005889727500552222 0.0015587865850748865 0.042200351503974304 -0.030902785497597854 0.009036627300759204 0.034715149442824236 -0.017739638649828523 -5.559221286754799 -0.04705651725607623 0.008728927372168708 -6.743236964206833 0.021516207071466925 0.016554219579192463 -6.712385935172113 0.028559210387228393 -0.016815442494853276 -0.0217082947089604 -0.028259624750631485 0.01961441732577243 8.083521209865111 3.4797164170983477 -19.242686859764554 0.04868149926569477 10.420925429666786 0.02391507163651691 -5.636274286583497 -15.645758270112678 3.155442700809699 0.01850304854669869 -0.03449955882677355 -0.015981063865498864 -0.022502861260297734 4.705156281694869 -0.020760318209850213 12.468229629614399 -8.223165906488095 6.902458223002343 -0.004644993621748256 46.41152680303203 -0.03163280601419104 -4.313034135015504 -14.776361919058976 -3.851717379168985 -0.021876988512202888 0.03972223513004346 -0.0114521175498571 0.012141270753450742 -10.76677650728426 0.03276776739231715 
0.03764275151247258 0.023917847223812967 -0.015404495788627346 -0.007221763524233302 -0.040769357084592076 -0.03463081238139318 -3.3155057814593483 0.9169706715304072 -0.7853341118348033 -1.000229385856969 3.523611248219241 0.31004037213862407 -1.1137715727897846 -1.746769636811199 -3.5348088499105135 0.4116030215967628 0.4682212857172439 -1.214131414040461 -0.635945479202692 11.538398299254482 0.5722918867712533 -0.14862042625623825 -1.0603328444918754 1.2187109994563088 -0.2653914020516205 -16.707290567213295 0.1321961096188338 -4.220203759496468 1.605058847169234 -12.89227099934115 71.25901826084153 19.120106496529708 10.658218651898624 21.502668408442183 2.7467189548344053 72.12939074819502 16.749022233500938 -0.3726264840720587 -4.021674888260084 4.536533434803031 -0.1267144618139726 -1.6055175459278705 -0.00658469329595401 -0.027732631087931336 -56.18789073788886 -0.0335708683310565 -0.0056298059682091785 -56.19015372141294 -38.79361540665915 -0.044644702175210126 0.013448880478739732 -0.010728837890944145 0.013500972626546781 0.04507173919098432 -0.02674413761697454 0.007671361212519799 0.03297703625494225 -36.64866421413481 0.001477314356951778 0.04880542469038544 0.02483162663109355 0.04278286397102378 0.011954595058114487 0.005012280497069475 -0.021528737198122466 0.020760058030993674 -19.733509137442816 0.04469166832638915 0.01717616943789176 0.004627006211593448 0.04676493704417498 0.003285737914362688 0.029563580291913506 -0.000724712146319349 0.0028413950723034133 24.092064243627036 0.007670289284436114 -0.0038415896032893758 28.848053062513745 -0.00739579775691569 -0.009848806860153422 28.890188921833296 -0.023663699749520116 0.0263915265554482 8.462217225218346 1.8616717126960847 10.086184710852866 -63.870732597244874 21.13184990570457 -29.191522118590015 -51.75616954754907 1.0951565887826809 -78.12015970381658 -12.269669237665754 -4.992955341373942 4.023123419855611 -0.4584402297784931 0.09256500391928171 -8.082708819186871 0.032742760402656786 -0.025342104570247926 44.58642965628726 -0.019880943709198972 0.019093378134408 44.57586286046274 12.470000865846517 0.000702196978777233 -0.039872855938849774 -0.02247626900055246 0.025698736756539952 -0.04571982136925609 0.016969931514386152 -0.006446666341099123 -0.027826610056182182 11.13041099430139 -0.03820292770578341 -0.026833967702428012 -0.03260207607288838 -0.011721706566129203 -0.03535952951965466 -0.011294541434117983 0.02751930258442911 -0.0456528113783252 4.8004582753859335 0.023903164818170224 0.0006681062789485645 -0.031895424053023896 -0.0016140308268351613 -0.027113118046557888 -0.015608324826727256 0.03488986218881287 0.030180108152687388 -5.575318125970996 -0.0378743340596505 -0.01822584526975561 -6.732038942512042 -0.035435118818362255 0.03538799087970175 -6.734531448044525 0.01901758710815411 0.03674769403295217 0.02428470535328424 -0.023314251330968858 -0.021479795398971758 8.046450915102689 3.4479771025415227 -19.22123360182573 -0.025439918001613177 10.389063456439969 0.01771525168387764 -5.601924259934079 -15.666779498101079 3.1483486896947728 -0.014899142049292524 -0.015471345562838001 0.015191898340333035 -0.0018116724445863615 4.7276959265121805 -0.01446614526053158 12.430513609135428 -8.22274350604985 6.925022790755498 0.008932539433836142 46.406874137644806 0.03767464958720023 -4.3482204180267905 -14.727735395574836 -3.7931405076863003 0.027138862455619785 0.004966560677749475 0.04290893850196433 -0.03895003058290009 -10.794678929381513 0.008009859348042532 
